<?xml version="1.0" encoding="UTF-8" standalone="no"?>
<svg
   xmlns:dc="http://purl.org/dc/elements/1.1/"
   xmlns:cc="http://creativecommons.org/ns#"
   xmlns:rdf="http://www.w3.org/1999/02/22-rdf-syntax-ns#"
   xmlns:svg="http://www.w3.org/2000/svg"
   xmlns="http://www.w3.org/2000/svg"
   xmlns:sodipodi="http://sodipodi.sourceforge.net/DTD/sodipodi-0.dtd"
   xmlns:inkscape="http://www.inkscape.org/namespaces/inkscape"
   data-name="Layer 1"
   viewBox="0 0 392.07721 338.83322"
   x="0px"
   y="0px"
   version="1.1"
   id="svg6566"
   sodipodi:docname="scratch2.svg"
   width="392.07721"
   height="338.83322"
   inkscape:version="0.92.1 r15371">
  <metadata
     id="metadata6572">
    <rdf:RDF>
      <cc:Work
         rdf:about="">
        <dc:format>image/svg+xml</dc:format>
        <dc:type
           rdf:resource="http://purl.org/dc/dcmitype/StillImage" />
        <dc:title>abstract</dc:title>
      </cc:Work>
    </rdf:RDF>
  </metadata>
  <defs
     id="defs6570" />
  <sodipodi:namedview
     pagecolor="#ffffff"
     bordercolor="#666666"
     borderopacity="1"
     objecttolerance="10"
     gridtolerance="10"
     guidetolerance="10"
     inkscape:pageopacity="0"
     inkscape:pageshadow="2"
     inkscape:window-width="1366"
     inkscape:window-height="705"
     id="namedview6568"
     showgrid="false"
     inkscape:zoom="1.03"
     inkscape:cx="198.37992"
     inkscape:cy="158.5549"
     inkscape:window-x="-8"
     inkscape:window-y="-8"
     inkscape:window-maximized="1"
     inkscape:current-layer="svg6566" />
  <title
     id="title6556">abstract</title>
  <path
     d="m 316.51733,29.102644 1.53098,2.431508 -1.1828,1.227701 c 5.48943,-2.745451 4.80386,12.402641 8.6299,16.116992 l 5.86093,-1.735527 -1.38446,3.188471 c 5.15553,-0.09346 9.70765,1.443928 13.98702,-0.702212 a 26.811457,27.483642 44.645324 0 1 13.08528,-3.061267 c 3.04255,0.04017 4.89548,4.344803 6.75019,8.670386 a 26.037887,26.690678 44.645324 0 1 0.28415,7.27541 c -0.375,13.429281 -5.25794,20.676361 -10.53743,16.484281 -1.56937,-1.24358 -3.50746,-0.0422 -5.27187,0.25561 -1.48403,0.24985 -3.06273,2.1336 -4.08042,-2.41964 a 1.2394064,1.2704793 44.645324 0 0 -1.66993,-0.73199 6.5687599,6.7334439 44.645324 0 1 -5.65362,-0.64649 c -2.46926,-1.158678 -5.37026,2.5899 -8.11803,5.78306 1.60602,2.03759 3.6231,6.72803 4.72591,5.63897 4.12346,-4.06229 7.92861,2.07832 12.03544,-0.34002 a 21.998758,22.550284 44.645324 0 1 12.58305,-2.03266 67.891616,69.593713 44.645324 0 1 11.31131,2.26002 c 1.72684,0.33936 3.46721,0.36213 5.19618,0.66811 a 91.049788,93.332479 44.645324 0 1 13.67477,2.706 c 2.45907,0.82537 4.66705,11.198823 3.46634,16.414453 a 15.183435,15.564096 44.645324 0 1 -4.18477,7.69844 c -3.57766,3.35494 -7.25831,5.86659 -11.18013,3.37835 -1.12891,-0.71703 -2.4885,0.73589 -3.74605,0.88349 -2.59521,0.3062 -5.30529,-0.73759 -7.76688,0.82295 -5.16617,3.27415 -9.8545,-2.86001 -14.84712,-2.18928 a 17.538024,17.977716 44.645324 0 1 -7.38555,-0.0796 c -2.58054,-0.75171 -3.62361,4.82502 -5.34741,7.18211 a 12.986946,13.312539 44.645324 0 1 -15.49768,5.68049 c -1.04662,-0.19735 -2.13741,0.51513 -3.20811,0.78704 -1.77969,0.44577 -2.38703,2.52822 -1.86101,6.80736 0.27747,2.2589 0.24467,4.75971 0.3508,7.13985 3.10223,0.23537 6.54368,-1.97562 8.36758,6.69923 a 40.432694,41.446373 44.645324 0 1 0.66615,5.56007 c 0.32863,5.1679 0.47473,10.42486 0.89806,15.53577 0.26444,3.21483 1.12688,4.60748 2.70834,5.03523 a 25.785676,26.432144 44.645324 0 1 8.39449,4.65682 c 2.38472,1.83768 2.9323,6.74531 2.76396,12.58348 -0.12442,4.38525 0.0117,8.13311 2.578,9.16617 a 19.124689,19.604161 44.645324 0 1 2.16865,9.41085 36.231699,37.140056 44.645324 0 1 -2.04846,9.49775 55.494728,56.886025 44.645324 0 1 -2.00992,5.41893 l -5.58198,1.47608 c 3.85709,8.64754 7.97847,4.61292 11.77926,5.0986 3.4029,0.43475 6.99088,-1.17479 9.86787,4.71684 a 18.42923,18.891266 44.645324 0 1 -0.72734,16.27507 l 1.75058,2.50377 c -6.75527,6.43487 -13.62375,0.0821 -19.96805,5.88819 1.17722,0.1864 2.39251,-0.19572 3.40305,0.70059 a 19.513357,20.002573 44.645324 0 1 2.59639,4.679 c 0.58683,1.14991 1.10192,3.34733 1.71001,3.44779 a 9.434358,9.6708848 44.645324 0 0 6.95703,-1.38474 l -1.21808,-2.35331 0.82478,-0.39609 c 1.78888,1.75798 3.3815,4.80769 5.58753,1.13173 0.60786,-1.01243 2.1546,1.48548 3.28912,2.21863 a 27.846648,28.544786 44.645324 0 0 2.81042,1.42977 l -0.10568,-1.87326 c 0.86453,-0.35583 2.14285,-1.76534 2.52285,-0.88609 1.77051,4.0908 4.07071,1.58607 6.01758,3.36591 a 17.974687,18.425327 44.645324 0 0 0.0126,3.98357 31.593099,32.385164 44.645324 0 1 0.3892,20.28817 9.3007241,9.5339007 44.645324 0 1 -4.8675,5.49741 36.050069,36.953873 44.645324 0 1 -9.23206,1.53457 61.179811,62.713638 44.645324 0 1 -9.21285,0.93871 c -2.09557,-0.0459 -4.2712,-2.3809 -6.23649,-1.38865 a 6.0859843,6.2385648 44.645324 0 1 -7.71658,-1.5867 c -2.05906,-1.956 -4.59661,-1.15064 -6.92646,-1.35234 -0.30943,-0.0269 -0.75988,1.09428 -0.9541,1.93628 -0.46202,2.00359 -0.80882,4.15851 -1.07542,5.57257 -0.29184,2.91616 -0.67019,5.23079 -0.69606,7.54853 a 17.341338,17.776099 44.645324 0 0 0.83029,4.08212 c 1.27857,5.29455 0.83866,7.26726 -1.69112,7.76473 -3.92441,0.77048 -7.84432,1.86675 -11.77128,2.3057 -1.1936,0.13021 -2.48142,-1.04603 -3.59442,-2.29504 -4.05389,-4.54872 -7.75033,-1.52607 -11.42575,3.20748 -0.39011,0.50255 -1.09717,0.95938 -1.33696,0.48636 -2.64274,-5.15933 -5.84686,-2.39047 -8.76517,-3.06462 a 19.306319,19.790344 44.645324 0 0 -7.38454,1.20383 c -1.10157,0.18567 -2.2985,1.81964 -3.00898,-2.37043 -0.20627,-1.21682 -1.92146,-1.16097 -2.94562,-1.15482 -4.83688,0.0268 -9.67526,0.27818 -14.51355,0.37159 a 92.621396,94.943488 44.645324 0 1 -12.11097,-0.0512 c -2.76073,-0.30345 -5.47312,-2.43344 -8.22236,-2.45984 a 45.648176,46.792612 44.645324 0 0 -8.61452,2.22086 c -0.78028,0.15042 -1.59013,-1.55957 -2.39209,-1.58793 a 20.719826,21.239288 44.645324 0 0 -9.21343,0.45277 25.107155,25.736611 44.645324 0 1 -11.73794,0.0126 c -2.86863,-0.12436 -5.7555,0.92087 -8.62754,0.88333 a 55.655653,57.050985 44.645324 0 1 -8.11991,-1.24876 5.3942881,5.5295272 44.645324 0 0 -1.83983,-0.25253 c -5.02124,0.96188 -10.03792,2.23714 -15.06192,2.89796 a 27.667842,28.361496 44.645324 0 1 -6.53259,-0.98693 c -0.57115,-0.067 -1.16773,0.8244 -1.73706,0.76896 a 35.740454,36.636495 44.645324 0 0 -5.91265,-0.80566 c -1.17521,0.0859 -3.27488,-3.21555 -3.22069,3.11217 a 37.210424,38.143319 44.645324 0 1 -13.72699,-1.29581 c -2.91035,-1.30031 -5.47769,0.97775 -8.20316,0.8156 a 85.588682,87.734459 44.645324 0 0 -13.05165,0.008 c -1.70442,0.15676 -3.38875,2.30817 -5.10968,2.7986 -2.6086,0.74664 -5.36836,2.16206 -7.83695,0.90426 a 11.380518,11.665836 44.645324 0 0 -11.840268,0.64428 c -1.84672,1.07107 -3.934471,-1.01401 -5.901634,-0.7411 -5.649786,0.78269 -11.372983,-2.29892 -16.952308,3.94219 -1.686388,1.88857 -3.965001,0.57114 -5.973814,0.65802 a 57.14727,58.579997 44.645324 0 1 -6.747783,0.14699 69.522511,71.265496 44.645324 0 1 -9.450524,-1.28658 c -0.563196,-0.11945 -1.171019,-1.69388 -1.552206,-2.96567 A 28.31625,29.026161 44.645324 0 1 52.75083,314.7232 l -1.493392,-2.06918 0.05451,-2.03718 c 4.53359,-0.97684 9.065114,-2.21853 13.601157,-2.84956 3.797045,-0.52805 7.608174,-0.0217 11.404517,-0.58778 a 18.926122,19.400615 44.645324 0 0 7.094788,-2.90412 21.258126,21.791084 44.645324 0 1 12.83348,-1.72751 21.839715,22.387254 44.645324 0 0 6.23214,-1.82802 c 0.41047,-0.12569 1.04237,-0.59726 1.20697,-0.13515 2.02286,5.68795 4.33595,1.52697 6.53766,0.93919 3.34983,-0.89348 6.70893,-1.60987 10.04708,-2.75468 a 15.686914,16.080197 44.645324 0 0 3.70727,-2.79034 l -0.0962,-1.72003 -4.36095,-1.92192 6.01583,-2.10993 -0.0682,-2.36655 c -2.85258,0.46997 -5.70424,1.09334 -8.55843,1.37566 -4.95714,0.48998 -9.91254,0.71794 -14.86935,1.15935 -2.444097,0.21778 -4.887083,0.6993 -7.330719,0.99037 A 1.779588,1.8242037 44.645324 0 1 93.297809,290.995 c -2.557641,-2.19377 -5.123494,-5.87664 -7.542028,1.10758 l -0.224988,0.30898 c -2.881705,-2.74242 -5.638785,5.15216 -8.03315,2.33039 a 7.2642203,7.4463401 44.645324 0 0 -7.649342,-2.24347 c -4.839824,0.46881 -9.675558,1.61217 -14.511785,2.544 -0.689664,0.13246 -1.36672,0.80703 -2.056516,0.95864 -5.867442,1.28114 -11.735528,2.66044 -17.608343,3.60249 -1.206421,0.19344 -2.442389,-1.33066 -3.666591,-2.04218 -0.474509,-0.27724 -0.989503,-0.91011 -1.424621,-0.66211 -2.724519,1.56054 -5.41513,3.60832 -8.158154,4.94147 -3.138697,1.52519 -7.818749,-7.57623 -7.212647,-13.62813 0.77647,-7.75294 3.558483,-13.95194 7.041093,-15.0441 3.977105,-1.24689 7.964688,-2.0633 11.948766,-3.06641 0.226846,-5.46952 0.143894,-6.32176 -1.716321,-6.65871 -2.255108,-0.40887 -4.742456,1.44369 -6.775254,-0.1631 -2.879078,-2.28034 -6.688556,0.40705 -8.553425,-8.41285 -0.510774,-2.41568 -2.073698,-3.3383 -2.88701,-5.5303 A 96.973905,99.405119 44.645324 0 1 10.77458,238.06946 22.072162,22.625529 44.645324 0 1 13.526477,222.49325 12.986946,13.312539 44.645324 0 0 13.051593,211.23087 C 9.7404263,207.73965 8.8132463,202.89895 9.1290763,193.21344 a 30.315109,31.075133 44.645324 0 0 -0.947911,-9.60638 103.92475,106.53022 44.645324 0 1 -2.89104,-25.29093 68.951275,70.679938 44.645324 0 1 -0.448312,-12.6826 c 0.384948,-4.16797 0.855386,-9.44849 3.343624,-10.42925 a 3.3323752,3.4159205 44.645324 0 0 1.380355,-2.42899 19.513357,20.002573 44.645324 0 1 10.2800577,-18.75594 15.190963,15.571813 44.645324 0 1 9.833468,-3.15671 c 3.315424,-0.0191 5.593834,-2.97318 6.709207,-10.25489 a 19.560411,20.050806 44.645324 0 1 4.281813,-9.401003 19.639463,20.131839 44.645324 0 0 2.519434,-6.39815 c -3.43481,0.78542 -6.8803,1.30997 -10.298299,2.42955 -3.236625,1.06388 -6.491231,4.26146 -9.654229,3.84998 -6.506851,-0.8454 -12.722722,4.55922 -19.1116757,4.6121 -1.30049,0.0112 -3.44013597,-3.15157 -3.69978997,-5.79666 -0.971706,-9.89848 -0.316859,-12.24859 2.34306997,-14.1224 0.692983,-0.48897 1.259499,-2.018994 1.924442,-2.875256 1.011791,-1.29988 2.021304,-3.116157 3.099465,-3.507295 A 57.392892,58.831777 44.645324 0 0 19.248711,65.800884 c 3.067293,-1.81926 6.534385,1.003076 9.288323,-5.415519 0.738325,-1.721753 2.325832,-1.347475 3.530282,-1.81712 7.091007,-2.767188 14.182938,-5.530237 21.27829,-8.23144 a 71.608893,73.404185 44.645324 0 1 10.777075,-3.798861 c 7.224539,-1.501073 14.462634,-2.458315 21.695541,-3.640341 0.434894,-0.07079 0.996633,0.267801 1.286979,-0.272952 4.29512,-7.962482 9.539659,-4.103267 14.238389,-7.279367 1.15508,-0.783201 2.64278,-3.02262 3.52584,-2.29637 3.76726,3.095134 7.28793,0.145232 10.92376,-1.498528 a 49.104774,50.335869 44.645324 0 1 11.2029,-3.796107 c 6.16973,-1.181813 12.35474,-1.653093 18.5322,-2.563496 a 45.266096,46.400953 44.645324 0 0 4.93339,-1.501475 c 1.20249,-0.321923 2.61124,-2.721905 3.43209,1.631945 l 0.89113,-0.0561 c 2.26749,-2.02678 4.50611,-4.297911 6.79596,-6.108801 0.6589,-0.519801 1.5251,-0.122955 2.21112,0.436352 3.70098,3.031533 7.42771,0.470463 11.15198,-0.001 a 68.149473,69.858034 44.645324 0 0 8.54241,-0.69027 c 2.01833,-0.512985 3.9751,-2.807594 5.99479,-3.384439 a 46.960046,48.137372 44.645324 0 1 9.05869,-1.254165 23.964681,24.565494 44.645324 0 0 5.12561,-0.03477 c 5.35442,-1.636796 10.68263,-3.921985 16.04017,-5.312035 1.2845,-0.332952 2.64941,2.719958 3.98348,2.670053 3.5839,-0.134445 7.25677,-2.4802 10.72826,-1.326335 2.98669,0.994 5.37538,-3.503756 8.29873,-1.579605 0.35634,2.721482 2.59377,4.214044 4.20948,0.773652 1.08905,-2.317002 1.86478,-1.923247 2.99506,-1.412048 a 11.147129,11.426597 44.645324 0 0 12.42907,-0.796893 2.9023001,2.9750631 44.645324 0 1 3.31362,0.253434 c 4.86311,2.910442 9.5455,-0.534075 14.29568,-2.566774 a 17.880578,18.328859 44.645324 0 1 5.67175,-0.362878 c 3.72943,-0.387729 7.4583,-1.120354 11.18601,-1.250794 1.60373,-0.05756 3.19494,1.338954 4.80774,1.491724 a 15.44882,15.836134 44.645324 0 0 4.13105,-0.899045 9.4672958,9.7046485 44.645324 0 1 3.54915,-0.35491 c 2.29207,0.4406 4.50207,1.042757 6.62928,-2.52601 a 1.858639,1.9052366 44.645324 0 1 2.76735,-0.69330603 15.30954,15.693362 44.645324 0 0 15.53782,2.04528603 35.961607,36.863194 44.645324 0 1 10.74853,-2.08135803 c 0.41091,-0.04656 0.84237,2.26200003 1.26584,3.47871603 2.63302,-3.84568403 5.74457,-4.29653103 6.81545,0.28241 0.98012,-0.834325 1.89822,-2.225896 2.8209,-2.300735 a 21.241186,21.773719 44.645324 0 1 14.71973,2.149661 l 0.75727,0.301669 a 97.743711,100.19422 44.645324 0 1 2.03852,10.212685 18.14314,18.598003 44.645324 0 1 -1.26557,5.229187 15.8309,16.227793 44.645324 0 0 -0.91297,2.914101 c -0.47114,5.24241 -2.04348,6.454313 -3.88812,6.781205 -4.04885,0.716523 -8.09772,1.436856 -12.14868,2.040975 -0.4482,0.06724 -0.90254,-0.663966 -1.36275,-0.938613 -1.1833,-0.705573 -2.36894,-1.918949 -3.55871,-1.936454 -4.65801,-0.08331 -9.32141,0.07359 -13.98225,0.415343 -4.57506,0.336344 -9.14698,1.06044 -13.72065,1.474899 -0.72827,0.06556 -1.46334,-0.567107 -2.18489,-0.940874 l -3.65092,-1.96624 z m 26.24329,241.371286 0.0857,-1.84718 -1.19123,-0.22902 c -2.56674,-2.40034 -6.05405,2.41173 -7.95099,-5.59386 -0.14919,-0.63188 -1.10418,-0.28203 -1.67314,-0.10596 -2.39231,0.74081 -4.77963,1.58921 -7.16858,2.39763 l -0.0725,-1.84528 2.40044,-2.10636 c -2.90434,-3.06408 -5.91585,0.53596 -8.20395,-4.08477 l -0.51167,0.15694 a 43.319936,44.406001 44.645324 0 1 -10.35744,4.15714 101.30195,103.84167 44.645324 0 1 -15.18426,-0.0545 c -1.98704,-0.0354 -4.47351,1.68657 -5.85341,-0.54473 -2.58446,-4.17992 -4.64918,1.45724 -6.97338,0.40552 a 27.400576,28.08753 44.645324 0 0 -6.61705,-0.74908 c -0.95713,-0.18847 -1.89188,-2.02573 -2.80749,-1.86907 -3.41826,0.58597 -6.82221,1.88441 -10.24085,2.5276 a 40.268004,41.277555 44.645324 0 1 -6.77574,0.19319 c -0.0284,-5.33531 -2.07137,-5.40979 -3.02553,-3.46398 -2.12475,4.34817 -4.29475,2.88485 -6.50316,2.75907 a 21.639263,22.181777 44.645324 0 0 -4.69449,-0.61335 c -1.33522,0.22332 -2.63953,1.95919 -3.97079,2.15863 -1.27213,0.19085 -2.56415,-1.21413 -3.84447,-1.08135 -3.24798,0.33613 -6.48641,1.24283 -9.73806,1.70096 a 10.163697,10.418509 44.645324 0 1 -3.11379,-0.64867 11.314641,11.598309 44.645324 0 0 -4.16943,-0.63622 c -5.04524,0.98899 -10.08636,2.21705 -15.12238,3.53647 -0.94764,0.24776 -1.89915,2.08109 -2.79154,1.89812 -4.07284,-0.83615 -8.11235,-2.53045 -12.19089,-3.07875 -1.82941,-0.24603 -3.71675,1.91964 -5.58965,2.1975 a 73.912665,75.765714 44.645324 0 1 -9.36368,0.27067 l 1.93267,7.21504 c 5.94832,0.88412 12.13395,-1.68719 18.07124,4.44434 1.38551,-3.49245 3.69797,-1.10272 5.1101,-2.57662 5.52088,-5.75887 10.99816,4.2228 16.34443,-1.92642 0.264,-0.30303 0.75591,0.93912 1.16398,1.03368 3.39761,0.80172 6.80523,1.3879 10.19754,2.27162 a 6.5875815,6.7527374 44.645324 0 0 8.37977,-2.87977 c 1.27272,-1.71432 3.51785,1.05964 5.33087,1.61851 0.38885,0.1207 0.81855,-0.60463 1.24369,-0.7848 0.5427,-0.23756 1.12077,-0.63966 1.64046,-0.4242 a 10.590949,10.856473 44.645324 0 0 12.5506,-1.30695 c 1.42406,-1.26449 3.38971,-3.31628 4.41447,-1.97518 3.94408,5.15863 7.87503,0.67676 11.76945,0.40612 1.74039,-0.1211 3.65963,-5.94432 4.88265,1.6895 0.0622,0.38953 0.64411,0.41424 0.97978,0.36337 q 5.10025,-0.80608 10.19847,-1.73789 l 0.38883,-1.16855 -1.59998,-1.6537 c 1.68601,-2.69275 2.64143,-2.53283 4.42439,-0.31552 0.97321,1.21058 2.09381,2.4623 3.15343,2.42498 3.17312,-0.10988 6.34828,-0.95541 9.5238,-1.28164 a 19.897319,20.396161 44.645324 0 1 4.47302,0.68126 l -1.84755,1.62565 0.0684,1.03545 10.86964,1.34186 0.0574,-2.04866 -3.05629,-0.84409 c 2.65598,-1.28013 2.63848,-1.22646 4.58979,2.32272 0.29653,0.53868 0.83148,0.46135 1.25475,0.41938 a 60.635864,62.156053 44.645324 0 0 8.6094,-1.02307 c 1.31295,-0.30962 2.58908,-1.82107 3.4795,-2.48704 z m -201.08761,22.18074 -4.78289,0.93373 1.78969,-2.52502 -2.51684,-4.31929 -0.42349,1.94095 -5.26641,0.86625 -0.008,2.1364 c 3.8096,-0.83987 7.19438,6.48416 11.20937,0.96696 z m 25.66877,-23.80365 0.12615,-1.36386 -10.25484,0.18583 -0.028,1.36208 z m 124.22685,4.66669 -0.0112,1.67907 8.85677,-1.83077 -0.0544,-2.01235 z"
     id="path6558"
     inkscape:connector-curvature="0"
     style="fill:#01a850;fill-opacity:0.20603015;stroke-width:95.28069305" />
</svg>
